<svg xmlns="http://www.w3.org/2000/svg" width="56" height="56" viewBox="0 0 56 56">
  <g id="download-icon-link-1324760597539131174_0" transform="translate(0 -0.273)">
    <path id="Path_1" data-name="Path 1" d="M27.721,9.624,10.312,27.033a10.551,10.551,0,0,0,0,14.922h0a10.551,10.551,0,0,0,14.922,0L45.959,21.23a7.034,7.034,0,0,0,0-9.948h0a7.034,7.034,0,0,0-9.948,0L15.286,32.007a3.517,3.517,0,0,0,0,4.974h0a3.517,3.517,0,0,0,4.974,0L37.669,19.572" transform="translate(1.245 1.59)" fill="none" stroke="#727272" stroke-linecap="round" stroke-linejoin="round" stroke-width="4"/>
    <rect id="Rectangle_12" data-name="Rectangle 12" width="56" height="56" transform="translate(0 0.273)" fill="rgba(255,255,255,0.01)"/>
  </g>
</svg>
